<?xml version="1.0" encoding="utf-8"?>
<svg width="100" height="60" viewBox="0 0 100 60" fill="none" xmlns="http://www.w3.org/2000/svg">
    <rect width="100" height="60" fill="#C4C4C4"/>
    <path fill-rule="evenodd" clip-rule="evenodd" d="M34 10C31.7909 10 30 11.7909 30 14V46C30 48.2091 31.7909 50 34 50H66C68.2091 50 70 48.2091 70 46V14C70 11.7909 68.2091 10 66 10H34ZM35.096 43.2053L42.436 33.4187C42.468 33.376 42.532 33.376 42.564 33.4187L47.4419 39.9226C47.4721 39.9627 47.5313 39.9655 47.5651 39.9284L55.7675 30.9058C55.8015 30.8683 55.8613 30.8715 55.8912 30.9123L64.9066 43.206C64.9454 43.2589 64.9077 43.3333 64.8421 43.3333H35.16C35.0941 43.3333 35.0564 43.2581 35.096 43.2053Z" fill="white" fill-opacity="0.5"/>
</svg>
