<?xml version="1.0" encoding="utf-8"?>
<svg width="24" height="24" viewBox="0 0 24 24" fill="none" xmlns="http://www.w3.org/2000/svg">
    <path fill-rule="evenodd" clip-rule="evenodd" d="M4 0C1.79086 0 0 1.79086 0 4V20C0 22.2091 1.79086 24 4 24H20C22.2091 24 24 22.2091 24 20V4C24 1.79086 22.2091 0 20 0H4ZM3.096 19.872L7.436 14.0853C7.468 14.0427 7.532 14.0427 7.564 14.0853L10.4419 17.9226C10.4721 17.9627 10.5313 17.9655 10.5651 17.9284L15.4342 12.5724C15.4682 12.535 15.528 12.5381 15.5579 12.5789L20.9066 19.8727C20.9454 19.9255 20.9077 20 20.8421 20H3.16C3.09408 20 3.05645 19.9247 3.096 19.872Z" fill="white"/>
    </svg>
