<?xml version="1.0" encoding="utf-8"?>
<svg width="24" height="24" viewBox="0 0 24 24" fill="none" xmlns="http://www.w3.org/2000/svg">
    <g clip-path="url(#clip0)">
    <path d="M16.2802 4.71973C15.9872 4.42676 15.5127 4.42676 15.2197 4.71973L0.219734 19.7197C-0.0732447 20.0127 -0.0732447 20.4872 0.219734 20.7802L3.21973 23.7802C3.3662 23.9267 3.55811 23.9999 3.75002 23.9999C3.94194 23.9999 4.1338 23.9267 4.28031 23.7802L19.2802 8.78027C19.5732 8.48729 19.5732 8.01271 19.2802 7.71973L16.2802 4.71973ZM3.74998 22.1894L1.81056 20.25L12 10.0606L13.9394 12L3.74998 22.1894ZM15 10.9395L13.0605 8.99999L15.7499 6.31056L17.6894 8.25002L15 10.9395Z" fill="white"/>
    <path d="M10.5 6C11.25 4.50002 12 3.75001 13.5 3C12 2.24999 11.25 1.50002 10.5 0C9.74999 1.49998 8.99992 2.24999 7.5 3C9.00002 3.75001 9.74999 4.50002 10.5 6Z" fill="white"/>
    <path d="M22.5 10.5C22.125 11.25 21.7499 11.625 21 12C21.75 12.375 22.125 12.75 22.5 13.5C22.875 12.7499 23.25 12.375 24 12C23.25 11.625 22.875 11.25 22.5 10.5Z" fill="white"/>
    <path d="M22.5 2.24999C21.375 1.68747 20.8125 1.12499 20.25 0C19.6875 1.12499 19.1249 1.68752 18 2.24999C19.125 2.81251 19.6875 3.37498 20.25 4.49998C20.8125 3.37498 21.375 2.81246 22.5 2.24999Z" fill="white"/>
    </g>
    <defs>
    <clipPath id="clip0">
    <rect width="24" height="24" fill="white"/>
    </clipPath>
    </defs>
    </svg>
