<?xml version="1.0" encoding="utf-8"?>
<svg width="22" height="19" viewBox="0 0 22 19" fill="none" xmlns="http://www.w3.org/2000/svg">
    <path fill-rule="evenodd" clip-rule="evenodd" d="M8.29108 0C8.01324 0 7.74677 0.105357 7.5503 0.292893L5.2381 2.5H2.09524C0.93807 2.5 0 3.39543 0 4.5V16.5C0 17.6046 0.93807 18.5 2.09524 18.5H19.9048C21.0619 18.5 22 17.6046 22 16.5V4.5C22 3.39543 21.0619 2.5 19.9048 2.5H16.7619L14.4497 0.292893C14.2532 0.105357 13.9868 0 13.7089 0H8.29108ZM8 10C8 8.34315 9.34315 7 11 7C12.6569 7 14 8.34315 14 10C14 11.6569 12.6569 13 11 13C9.34315 13 8 11.6569 8 10ZM11 5C8.23858 5 6 7.23858 6 10C6 12.7614 8.23858 15 11 15C13.7614 15 16 12.7614 16 10C16 7.23858 13.7614 5 11 5Z" fill="white"/>
</svg>
