<?xml version="1.0" encoding="utf-8"?>
<svg id="Capa_1" data-name="Capa 1" xmlns="http://www.w3.org/2000/svg" viewBox="0 0 395.31 348.46"><path d="M473.84,140s5.45,5.9,14.35-12.83,2.85,23.34-6.88,32.22-10.26-.52-10.26-.52Z" transform="translate(-97.21 -24.8)" style="fill:#d15c58"/><path d="M431.75,121.13s29.61-11.22,43.63,15.9,2,41.13-7.42,45.81S431.75,121.13,431.75,121.13Z" transform="translate(-97.21 -24.8)" style="fill:#ea786a"/><path d="M187.72,306.63l9.94,55.44s17.13,12.12,44.24,4.64,12-34.51,12-34.51Z" transform="translate(-97.21 -24.8)" style="fill:#ea786a"/><path d="M339.15,320.69l6.55,32.93s17.77,7.48,37.4,0,4.68-47,4.68-47Z" transform="translate(-97.21 -24.8)" style="fill:#d15c58"/><path d="M227.41,63.71s-32.73-41.58-43-38.77,4.67,72.18,0,83.31S227.41,63.71,227.41,63.71Z" transform="translate(-97.21 -24.8)" style="fill:#ea786a"/><path d="M216.5,74.82S191.41,39.9,189.54,39s2.89,36.34,1.87,48.93S216.5,74.82,216.5,74.82Z" transform="translate(-97.21 -24.8)" style="fill:#d15c58"/><path d="M373.73,316.22,384,355.49s28,13.53,54.23-7.37c2.81-23.71,5.16-81.46,5.16-81.46l-69.7,45.84" transform="translate(-97.21 -24.8)" style="fill:#ea786a"/><path d="M476.14,189.93c7,97.66-81.76,145.67-180.9,145.67S134,282.38,134,201.15,210.11,45.66,302.26,45.66C399.93,45.66,470.33,108.91,476.14,189.93Z" transform="translate(-97.21 -24.8)" style="fill:#f88976"/><path d="M233,104.42c-1.4-7,34.1-68.11,44.42-63.12s15.9,88.73,9.35,101.87S234.43,111.43,233,104.42Z" transform="translate(-97.21 -24.8)" style="fill:#ea786a"/><path d="M245.36,101.15s21.32-42.6,26.93-43,6.55,78.45-2.8,70.79S244.84,106.76,245.36,101.15Z" transform="translate(-97.21 -24.8)" style="fill:#d15c58"/><path d="M293.58,59.51s52.5-7.73,100.8,20.86a17.17,17.17,0,0,1,4.21,10.28s-42-23.39-100.8-18.77C297.28,66.56,293.58,59.51,293.58,59.51Z" transform="translate(-97.21 -24.8)" style="fill:#d15c58"/><path d="M311.1,333l-9.35,36.13s-15.15,7.14-53.58,2.61c-6.27-10.66-13.74-60.22-13.74-60.22Z" transform="translate(-97.21 -24.8)" style="fill:#f88976"/><path d="M166.24,163c-8.49-4-46,4.07-46,4.07l8.36,117.74s32.59,4.73,46.1-3.27,21.42-28.58,19.07-61.8S174.73,167,166.24,163Z" transform="translate(-97.21 -24.8)" style="fill:#ea786a"/><path d="M151.22,224c2.31,32.52-7.84,59.73-22.66,60.78s-28.71-24.45-31-57,7.84-59.73,22.66-60.78S148.91,191.48,151.22,224Z" transform="translate(-97.21 -24.8)" style="fill:#f88976"/><path d="M119.33,242.37a5,5,0,0,1-4.61,5.32l-1.75.12a5,5,0,0,1-5.31-4.61l-2.45-34.42a5,5,0,0,1,4.61-5.31l1.75-.13a5,5,0,0,1,5.32,4.61Z" transform="translate(-97.21 -24.8)" style="fill:#d15c58"/><path d="M138.83,243.06a5,5,0,0,1-4.61,5.32l-1.75.12a5,5,0,0,1-5.31-4.61l-2.44-34.42a5,5,0,0,1,4.61-5.32l1.75-.12a5,5,0,0,1,5.31,4.61Z" transform="translate(-97.21 -24.8)" style="fill:#d15c58"/><path d="M186.64,141.53c-3.24,10.35,2.05,21.23,11.83,24.3s20.35-2.83,23.6-13.18-2-21.22-11.84-24.29S189.89,131.19,186.64,141.53Z" transform="translate(-97.21 -24.8)" style="fill:#fff"/><path d="M188.58,142.14c-2.54,8.09,1.6,16.59,9.24,19s15.91-2.21,18.45-10.3-1.6-16.59-9.25-19S191.12,134.05,188.58,142.14Z" transform="translate(-97.21 -24.8)" style="fill:#221f1f"/><path d="M173.51,139.37c-3.57,6.95-10.21,10.66-14.83,8.28s-5.46-9.93-1.89-16.87,10.22-10.66,14.83-8.28S177.09,132.43,173.51,139.37Z" transform="translate(-97.21 -24.8)" style="fill:#fff"/><path d="M170.16,137.68c-2.8,5.43-8,8.33-11.6,6.47s-4.27-7.76-1.47-13.19,8-8.32,11.59-6.47S173,132.25,170.16,137.68Z" transform="translate(-97.21 -24.8)" style="fill:#221f1f"/><path d="M213.69,140.76a3.39,3.39,0,1,1-3.39-3.38A3.39,3.39,0,0,1,213.69,140.76Z" transform="translate(-97.21 -24.8)" style="fill:#fff"/><path d="M168.85,130.84a1.69,1.69,0,1,1-.9-2.22A1.7,1.7,0,0,1,168.85,130.84Z" transform="translate(-97.21 -24.8)" style="fill:#fff"/>
</svg>